<svg xmlns="http://www.w3.org/2000/svg" xmlns:xlink="http://www.w3.org/1999/xlink" width="110.374" height="47.115" viewBox="0 0 110.374 47.115">
  <defs>
    <clipPath id="clip-path">
      <path id="Path_19003" data-name="Path 19003" d="M67.867,407.414a5.844,5.844,0,0,0-1.533,1.691,5.162,5.162,0,0,0-.132,4.7,4.932,4.932,0,0,0,4.255,2.775,12.532,12.532,0,0,1,5.867,1.506,12.529,12.529,0,0,1,2.828,2.167,11.758,11.758,0,0,1,2.246,3.356,12.252,12.252,0,0,1,.846,2.8,14.338,14.338,0,0,1,.132,2.775.392.392,0,0,1-.026.185,12.756,12.756,0,0,1-.449,2.3,9.14,9.14,0,0,1-1.639,3.3,10.973,10.973,0,0,1-5.154,4.149,7.968,7.968,0,0,1-3.647.846,7.219,7.219,0,0,0-3.7.978,4.62,4.62,0,0,0-1.744,2.22,6.251,6.251,0,0,0-.026,3.594,5.008,5.008,0,0,0,2.564,2.749s1.771.951,5.339.291c0,0,1.691-.37,2.405-.529a22.006,22.006,0,0,0,6.819-3.145,26.148,26.148,0,0,0,4.493-4.2,22.686,22.686,0,0,0,3.462-6.105l8.721-2.431s.714,2.22,1.4,3.938a13,13,0,0,0,1.136,2.167c.317.5.74,1.189,1.216,1.824a19.155,19.155,0,0,0,2.326,2.722c.846.766,2.114,1.744,2.96,2.405a18.043,18.043,0,0,0,2.7,1.48,21.811,21.811,0,0,0,6.528,2.035c.238.026.476.053.687.079a21.573,21.573,0,0,0,6.528-.291s6.475-.925,12.369-7.4a23.881,23.881,0,0,0,7.955,5.946,21.741,21.741,0,0,0,30.446-18.817s.4-3.039-1.533-4.757a5.045,5.045,0,0,0-8.246,2.379,16.843,16.843,0,0,0-.211,1.718,11.939,11.939,0,0,1-2.511,6.871,11.682,11.682,0,0,1-20.562-4.572,9.836,9.836,0,0,1-.211-1.506c-.026-.5-.079-1.189-.132-1.665a5.427,5.427,0,0,0-2.643-3.911,5.1,5.1,0,0,0-5.074.264,4.78,4.78,0,0,0-2.194,3.224l-.026.4s-.132,1.559-.132,1.85c0,0,.026,2.669-2.537,6.026a11.227,11.227,0,0,1-11.285,4.2,11.617,11.617,0,0,1-9.277-9.171l14.087-3.885a4.942,4.942,0,0,0,2.114-1.189,4.623,4.623,0,0,0,1.321-3.885,4.959,4.959,0,0,0-2.511-3.515s-1.586-1-5.312.264l-26.957,7.268s-1.8-15.646-17.76-18.923a17.748,17.748,0,0,0-3.092-.291,5.964,5.964,0,0,0-3.489.74" transform="translate(-65.7 -406.664)"/>
    </clipPath>
    <linearGradient id="linear-gradient" x1="-0.133" y1="7.014" x2="-0.13" y2="7.014" gradientUnits="objectBoundingBox">
      <stop offset="0" stop-color="#ffffff"/>
      <stop offset="1" stop-color="#ffffff"/>
    </linearGradient>
    <clipPath id="clip-path-2">
      <path id="Path_19005" data-name="Path 19005" d="M169.1,399.237A6.237,6.237,0,1,0,175.337,393a6.249,6.249,0,0,0-6.237,6.237" transform="translate(-169.1 -393)"/>
    </clipPath>
    <linearGradient id="linear-gradient-2" x1="-2.289" y1="24.396" x2="-2.277" y2="24.396" gradientUnits="objectBoundingBox">
      <stop offset="0" stop-color="#ffffff"/>
      <stop offset="1" stop-color="#ffffff"/>
    </linearGradient>
  </defs>
  <g id="Logo" transform="translate(-1075.548 -26.772)">
    <g id="Group_52196" data-name="Group 52196" transform="translate(1075.548 30.384)">
      <g id="Group_52195" data-name="Group 52195" transform="translate(0 0)" clip-path="url(#clip-path)">
        <path id="Path_19002" data-name="Path 19002" d="M38.4,359.715,153.682,341.4l9.779,61.553L48.179,421.268Z" transform="translate(-45.615 -358.649)" fill="#ffffff"/>
      </g>
    </g>
    <g id="Group_52198" data-name="Group 52198" transform="translate(1102.876 26.772)">
      <g id="Group_52197" data-name="Group 52197" transform="translate(0 0)" clip-path="url(#clip-path-2)">
        <path id="Path_19004" data-name="Path 19004" d="M150.3,381.627l14.985-7.427,7.426,15.012-14.985,7.426Z" transform="translate(-155.269 -379.169)" fill="#ffffff"/>
      </g>
    </g>
  </g>
</svg>
