<svg xmlns="http://www.w3.org/2000/svg" xmlns:xlink="http://www.w3.org/1999/xlink" width="521.091" height="258.019" viewBox="0 0 521.091 258.019">
  <defs>
    <linearGradient id="linear-gradient" x1="0.5" x2="0.5" y2="1" gradientUnits="objectBoundingBox">
      <stop offset="0" stop-color="#c3b66e"/>
      <stop offset="1" stop-color="#c58b2f"/>
    </linearGradient>
  </defs>
  <g id="TopImg" transform="translate(-1504.042 -489.916)">
    <g id="Group_61575" data-name="Group 61575" transform="translate(1504.042 691.012)" opacity="0.42">
      <ellipse id="Ellipse_114" data-name="Ellipse 114" cx="260.546" cy="28.461" rx="260.546" ry="28.461" fill="#eaeaea" opacity="0.21"/>
    </g>
    <g id="Group_61641" data-name="Group 61641" transform="matrix(0.978, 0.208, -0.208, 0.978, 1678.229, 508.033)">
      <g id="Group_61636" data-name="Group 61636" transform="translate(0 14.799)">
        <path id="Path_23620" data-name="Path 23620" d="M1918.6,552.9c0,1.225-9.175,2.218-20.495,2.218s-20.453,1.771-20.454.545c0-8.761,9.134-16.985,20.454-16.985S1918.6,545.043,1918.6,552.9Z" transform="translate(-1877.656 -538.676)" fill="#d5d6da"/>
      </g>
      <g id="Group_61637" data-name="Group 61637" transform="translate(0 27.888)">
        <path id="Path_23621" data-name="Path 23621" d="M1918.563,583.948c.053.856-4.371,1.886-10.9,2.679l-1.151.134c-2.522.283-5.319.531-8.264.721-2.5.162-4.9.266-7.119.32q-1.207.032-2.338.04c-6.565.053-11.082-.4-11.137-1.254-.046-.738,3.243-1.606,8.34-2.338.406-.058.822-.115,1.25-.173,2.157-.286,4.586-.546,7.189-.762q1.723-.144,3.534-.262c.841-.056,1.673-.1,2.487-.143,3.445-.177,6.635-.245,9.343-.211l.192,0C1915.141,582.772,1918.514,583.212,1918.563,583.948Z" transform="translate(-1877.654 -582.691)" fill="#eaeaea"/>
      </g>
      <g id="Group_61638" data-name="Group 61638" transform="translate(9.591 27.888)">
        <path id="Path_23622" data-name="Path 23622" d="M1932.46,582.7a13.392,13.392,0,0,1-2.239,3.093,13.2,13.2,0,0,1-9.458,4.014,13.062,13.062,0,0,1-6.971-2,13.308,13.308,0,0,1-3.885-3.724c2.157-.286,4.586-.546,7.189-.762q1.723-.144,3.534-.262c.841-.056,1.673-.1,2.487-.143C1926.562,582.734,1929.752,582.666,1932.46,582.7Z" transform="translate(-1909.907 -582.691)" fill="url(#linear-gradient)"/>
      </g>
      <g id="Group_61639" data-name="Group 61639" transform="translate(19.574)">
        <path id="Path_23623" data-name="Path 23623" d="M1944.358,505.177h0a.881.881,0,0,1-.88-.88V489.788a.88.88,0,0,1,.88-.88h0a.88.88,0,0,1,.88.88V504.3A.88.88,0,0,1,1944.358,505.177Z" transform="translate(-1943.478 -488.908)" fill="#d5d6da"/>
      </g>
      <g id="Group_61640" data-name="Group 61640" transform="translate(17.903 12.608)">
        <path id="Path_23624" data-name="Path 23624" d="M1937.858,533.883a2.552,2.552,0,1,1,2.552,2.576A2.564,2.564,0,0,1,1937.858,533.883Z" transform="translate(-1937.858 -531.307)" fill="#d5d6da"/>
      </g>
    </g>
    <g id="Group_61647" data-name="Group 61647" transform="matrix(0.985, -0.174, 0.174, 0.985, 1790.687, 515.729)">
      <g id="Group_61642" data-name="Group 61642" transform="translate(0.001 14.799)">
        <path id="Path_23625" data-name="Path 23625" d="M2736.687,552.9c0,1.225-9.175,2.218-20.5,2.218s-20.453,1.771-20.453.545c0-8.761,9.134-16.985,20.453-16.985S2736.687,545.043,2736.687,552.9Z" transform="translate(-2695.738 -538.676)" fill="#d5d6da"/>
      </g>
      <g id="Group_61643" data-name="Group 61643" transform="translate(0 27.888)">
        <path id="Path_23626" data-name="Path 23626" d="M2736.644,583.948c.053.856-4.371,1.886-10.9,2.679l-1.151.134c-2.522.283-5.319.531-8.264.721-2.5.162-4.9.266-7.119.32q-1.207.032-2.338.04c-6.566.053-11.082-.4-11.137-1.254-.046-.738,3.243-1.606,8.34-2.338q.608-.086,1.25-.173c2.157-.286,4.586-.546,7.189-.762q1.724-.144,3.534-.262c.841-.056,1.673-.1,2.486-.143,3.445-.177,6.635-.245,9.343-.211l.192,0C2733.222,582.772,2736.6,583.212,2736.644,583.948Z" transform="translate(-2695.735 -582.691)" fill="#eaeaea"/>
      </g>
      <g id="Group_61644" data-name="Group 61644" transform="translate(9.591 27.888)">
        <path id="Path_23627" data-name="Path 23627" d="M2750.541,582.7a13.337,13.337,0,0,1-3.285,4.062,13.132,13.132,0,0,1-15.383,1.041,13.309,13.309,0,0,1-3.885-3.724c2.157-.286,4.586-.546,7.189-.762q1.723-.144,3.534-.262c.841-.056,1.673-.1,2.486-.143C2744.643,582.734,2747.833,582.666,2750.541,582.7Z" transform="translate(-2727.988 -582.691)" fill="url(#linear-gradient)"/>
      </g>
      <g id="Group_61645" data-name="Group 61645" transform="translate(19.574)">
        <path id="Path_23628" data-name="Path 23628" d="M2762.44,505.177h0a.88.88,0,0,1-.88-.88V489.788a.88.88,0,0,1,.88-.88h0a.88.88,0,0,1,.88.88V504.3A.88.88,0,0,1,2762.44,505.177Z" transform="translate(-2761.56 -488.908)" fill="#d5d6da"/>
      </g>
      <g id="Group_61646" data-name="Group 61646" transform="translate(17.903 12.608)">
        <ellipse id="Ellipse_116" data-name="Ellipse 116" cx="2.551" cy="2.576" rx="2.551" ry="2.576" fill="#d5d6da"/>
      </g>
    </g>
    <g id="Group_61707" data-name="Group 61707" transform="translate(1772.63 565.483)">
      <g id="Group_61689" data-name="Group 61689" transform="translate(41.503 0)">
        <g id="Group_61688" data-name="Group 61688">
          <g id="Group_61649" data-name="Group 61649" transform="translate(0 63.568)">
            <g id="Group_61648" data-name="Group 61648">
              <path id="Path_23629" data-name="Path 23629" d="M2828.6,960.188s-6.914,1.606-8.242,3.579-1.534,5.5-.451,4.45a15.69,15.69,0,0,0,2.1-2.77s-1.994,3.78-.908,3.863,2.788-3.221,2.788-3.221-2.014,4.687-.962,4.433,2.556-3.824,2.556-3.824-1.7,4.436-.485,4.113,1.381-3.675,2.467-3.591,4.509,1.4,5.11-1.594a26.312,26.312,0,0,1-2.545-2.373A8.159,8.159,0,0,1,2828.6,960.188Z" transform="translate(-2819.212 -960.188)" fill="#ff7955"/>
            </g>
          </g>
          <g id="Group_61650" data-name="Group 61650" transform="translate(7.512 20.536)">
            <path id="Path_23630" data-name="Path 23630" d="M2857.842,846.014c8.4-16.217,6.394-23.952,21.809-28.618,1-.3,2.007-.711,3.084-1a22.671,22.671,0,0,1,5.484-.918c20.817-.239,25.583,9.874,25.583,9.874l-12.611,2.371s-22.052,6.522-28.226,6.573h-.059c-.571,4.392,5.235,8.21,2,15.4-5.26,11.712-19.079,15.138-22.482,15.233s-7.954-2.953-7.954-5.719C2844.473,855.689,2853.41,854.565,2857.842,846.014Z" transform="translate(-2844.473 -815.477)" fill="#b8c1c9"/>
          </g>
          <g id="Group_61651" data-name="Group 61651" transform="translate(27.275 20.926)">
            <path id="Path_23631" data-name="Path 23631" d="M2947.01,823.621s-5.319-9.091-17.579-6.3-17.621,28.388-18.5,58.46c0,0,7.057,30.971,32.682,19.329,3.389-1.539,17.052-14.618,16.883-20.9C2960.175,862.235,2961.389,832.465,2947.01,823.621Z" transform="translate(-2910.932 -816.788)" fill="#b8c1c9"/>
          </g>
          <g id="Group_61653" data-name="Group 61653" transform="translate(41.045 64.957)">
            <g id="Group_61652" data-name="Group 61652">
              <path id="Path_23632" data-name="Path 23632" d="M2968.411,964.907s-7.086-.4-8.916,1.116-3.018,4.844-1.684,4.143a15.67,15.67,0,0,0,2.792-2.068s-2.976,3.067-1.958,3.452,3.582-2.306,3.582-2.306-3.251,3.931-2.171,3.984,3.529-2.951,3.529-2.951-2.878,3.778-1.622,3.81,2.358-3.138,3.377-2.753,3.935,2.608,5.352-.093a26.3,26.3,0,0,1-1.775-2.993A8.168,8.168,0,0,1,2968.411,964.907Z" transform="translate(-2957.24 -964.859)" fill="#ff7955"/>
            </g>
          </g>
          <g id="Group_61677" data-name="Group 61677" transform="translate(43.12)">
            <g id="Group_61654" data-name="Group 61654" transform="translate(0 9.092)">
              <path id="Path_23633" data-name="Path 23633" d="M2966.071,785.1c-.061-.023-1.494-.573-1.8-1.688a2.1,2.1,0,0,1,.559-1.88c.237-.293.454-.558.653-.8,1.383-1.685,1.849-2.252,1.731-3.724l.134-.011c.122,1.526-.391,2.15-1.761,3.82-.2.242-.416.507-.652.8a1.968,1.968,0,0,0-.534,1.76c.287,1.05,1.7,1.593,1.715,1.6Z" transform="translate(-2964.218 -776.994)" fill="#131f2d"/>
            </g>
            <g id="Group_61655" data-name="Group 61655" transform="translate(0.61 9.097)">
              <path id="Path_23634" data-name="Path 23634" d="M2968.724,777.012a6.821,6.821,0,0,1-1.617,4.578c-1.832,2.213-.4,4.184,1.785,3.522s2.633,2.071,5.458.953S2968.724,777.012,2968.724,777.012Z" transform="translate(-2966.269 -777.012)" fill="#131f2d"/>
            </g>
            <g id="Group_61656" data-name="Group 61656" transform="translate(5.353 8.17)">
              <path id="Path_23635" data-name="Path 23635" d="M2990.833,786.486a3.148,3.148,0,0,1-2.355-2.181l-.993-3.459-.29-1.011-1.705-5.943-.326,5.891-.2,3.536-.055,1c-.046.825-.771,2.025-1.6,2.067,0,0-2.149,3.5-.44,4.295,2.008.934,6.552-2.389,8.016-4.186Z" transform="translate(-2982.218 -773.892)" fill="#ff7955"/>
            </g>
            <g id="Group_61657" data-name="Group 61657" transform="translate(8.104 13.912)">
              <path id="Path_23636" data-name="Path 23636" d="M2994,794.317c-.005.032-.011.064-.018.1a3.733,3.733,0,0,1-2.505,2.486l-.011-.012.2-3.536a3.012,3.012,0,0,1,2.031.052A.829.829,0,0,1,2994,794.317Z" transform="translate(-2991.47 -793.201)" fill="#131f2d"/>
            </g>
            <g id="Group_61658" data-name="Group 61658" transform="translate(2.688 2.266)">
              <path id="Path_23637" data-name="Path 23637" d="M2973.324,760.141c.478-3.737,3.321-6.453,6.35-6.065s5.1,3.731,4.62,7.468-3.321,6.453-6.35,6.065S2972.846,763.879,2973.324,760.141Z" transform="translate(-2973.255 -754.039)" fill="#ff7955"/>
            </g>
            <g id="Group_61659" data-name="Group 61659" transform="translate(10.725 8.258)">
              <path id="Path_23638" data-name="Path 23638" d="M3002.42,776.628a1.359,1.359,0,0,1-1.958-.112,1.52,1.52,0,0,1,.567-1.973,1.359,1.359,0,0,1,1.958.112A1.52,1.52,0,0,1,3002.42,776.628Z" transform="translate(-3000.283 -774.188)" fill="#ff7955"/>
            </g>
            <g id="Group_61661" data-name="Group 61661" transform="translate(7.625 8.764)">
              <g id="Group_61660" data-name="Group 61660">
                <path id="Path_23639" data-name="Path 23639" d="M2989.935,776.193a.126.126,0,0,1,.016-.238,1.362,1.362,0,0,1,1.569.566.127.127,0,0,1-.027.176.138.138,0,0,1-.176-.027,2.156,2.156,0,0,0-1.3-.472A.124.124,0,0,1,2989.935,776.193Z" transform="translate(-2989.857 -775.89)" fill="#080435"/>
              </g>
            </g>
            <g id="Group_61662" data-name="Group 61662" transform="translate(7.725 9.984)">
              <path id="Path_23640" data-name="Path 23640" d="M2990.985,780.574c-.029.3-.228.524-.445.5s-.369-.28-.341-.579.228-.524.444-.5S2991.014,780.275,2990.985,780.574Z" transform="translate(-2990.197 -779.995)" fill="#080435"/>
            </g>
            <g id="Group_61664" data-name="Group 61664" transform="translate(3.04 8.598)">
              <g id="Group_61663" data-name="Group 61663">
                <path id="Path_23641" data-name="Path 23641" d="M2974.567,775.882a.126.126,0,0,1-.076-.226,1.362,1.362,0,0,1,1.667-.074.127.127,0,0,1,.042.173.138.138,0,0,1-.173.042,2.154,2.154,0,0,0-1.384.06A.123.123,0,0,1,2974.567,775.882Z" transform="translate(-2974.441 -775.332)" fill="#080435"/>
              </g>
            </g>
            <g id="Group_61665" data-name="Group 61665" transform="translate(3.701 9.805)">
              <path id="Path_23642" data-name="Path 23642" d="M2977.448,779.81a.487.487,0,0,1-.219.635c-.208.063-.448-.118-.535-.405a.487.487,0,0,1,.219-.635C2977.121,779.341,2977.361,779.523,2977.448,779.81Z" transform="translate(-2976.662 -779.392)" fill="#080435"/>
            </g>
            <g id="Group_61666" data-name="Group 61666" transform="translate(2.623)">
              <path id="Path_23643" data-name="Path 23643" d="M2977.035,749.65s-.182,2.363,2.7,3.138,4.744,2.274,4.08,4.336-5.95,5.839-2.694,7.981,2.922-1.118,6.594.1,4.994-3.726,2.774-6.976-.182-10.838-9.949-11.739-7.2,7.312-7.2,7.312S2976.709,752.244,2977.035,749.65Z" transform="translate(-2973.037 -746.419)" fill="#131f2d"/>
            </g>
            <g id="Group_61667" data-name="Group 61667" transform="translate(6.973 2.259)">
              <path id="Path_23644" data-name="Path 23644" d="M2992.343,771.006a2.056,2.056,0,0,1-1.169-1.478c-.226-1.629,1.913-3.773,3.8-5.665.5-.5.966-.968,1.386-1.42a3.647,3.647,0,0,0,.769-4.206,4.253,4.253,0,0,0-4.422-2.126c-3.778.381-5.03-2.034-5.042-2.059l.071-.036c.012.024,1.246,2.391,4.963,2.016a4.329,4.329,0,0,1,4.5,2.17,3.769,3.769,0,0,1-.782,4.3c-.421.453-.891.924-1.388,1.423-1.874,1.878-4,4.007-3.778,5.6a1.956,1.956,0,0,0,1.13,1.42Z" transform="translate(-2987.665 -754.016)" fill="#fff"/>
            </g>
            <g id="Group_61669" data-name="Group 61669" transform="translate(0.683 5.81)">
              <g id="Group_61668" data-name="Group 61668">
                <path id="Path_23645" data-name="Path 23645" d="M2971.364,769.552a1.121,1.121,0,0,0-.21.093,5.787,5.787,0,0,1-.163,1.706l.076.08A5.913,5.913,0,0,0,2971.364,769.552Zm.028-.009c-.01-.156-.025-.312-.045-.467h0c0-.008,0-.016,0-.022-.01-.075-.022-.15-.036-.225a4.344,4.344,0,0,0-1.044-2.231,2.685,2.685,0,0,0-.2-.186,2.165,2.165,0,0,0-.387-.261,1.915,1.915,0,0,0-.361-.14,1.514,1.514,0,0,0-.834.007,1.486,1.486,0,0,0-.247.092c-1.274.581-2,2.735-1.622,4.806a4.7,4.7,0,0,0,.733,1.861,2.837,2.837,0,0,0,.376.443,2.194,2.194,0,0,0,.514.376,1.713,1.713,0,0,0,.573.183,1.588,1.588,0,0,0,.857-.135l.014-.006a3.156,3.156,0,0,0,1.5-2.079,5.584,5.584,0,0,0,.141-.631A6.121,6.121,0,0,0,2971.392,769.543Zm-4.606.8c-.165-1.787.481-3.517,1.553-4.006a1.613,1.613,0,0,1,.173-.066,1.288,1.288,0,0,1,.507-.058h.005a.952.952,0,0,1,.192.034,1.392,1.392,0,0,1,.349.127,2.086,2.086,0,0,1,.5.374,4.031,4.031,0,0,1,1,2.134c.017.095.032.186.043.28.024.164.038.325.047.486a5.787,5.787,0,0,1-.163,1.706,2.991,2.991,0,0,1-1.411,2.067.283.283,0,0,1-.04.015,1.387,1.387,0,0,1-1.187-.053,2,2,0,0,1-.493-.37,2.83,2.83,0,0,1-.351-.433,4.558,4.558,0,0,1-.651-1.7c-.031-.173-.057-.347-.072-.52A.019.019,0,0,1,2966.786,770.339Z" transform="translate(-2966.515 -765.957)" fill="#364154"/>
              </g>
            </g>
            <g id="Group_61670" data-name="Group 61670" transform="translate(6.934 5.34)" opacity="0.3">
              <path id="Path_23646" data-name="Path 23646" d="M2992.584,767.241c.193,1.988-.775,3.973-2.163,4.433s-2.669-.78-2.862-2.768.775-3.973,2.163-4.433S2992.392,765.252,2992.584,767.241Z" transform="translate(-2987.535 -764.377)" fill="#fff"/>
            </g>
            <g id="Group_61671" data-name="Group 61671" transform="translate(0.953 6.037)" opacity="0.3">
              <path id="Path_23647" data-name="Path 23647" d="M2971.974,769.537c.193,2-.664,4.027-1.913,4.533s-2.419-.7-2.612-2.7.664-4.027,1.913-4.533S2971.781,767.54,2971.974,769.537Z" transform="translate(-2967.421 -766.722)" fill="#fff"/>
            </g>
            <g id="Group_61673" data-name="Group 61673" transform="translate(6.525 4.815)">
              <g id="Group_61672" data-name="Group 61672">
                <path id="Path_23648" data-name="Path 23648" d="M2991.8,766.09c0-.122-.011-.248-.023-.374s-.028-.237-.048-.351a3.484,3.484,0,0,0-1.388-2.406,2.031,2.031,0,0,0-1.78-.243,2.732,2.732,0,0,0-1.123.733,5.009,5.009,0,0,0-1.275,3.2c-.006.156-.008.312,0,.47,0,.114.011.229.023.342a3.654,3.654,0,0,0,1.44,2.763,2.309,2.309,0,0,0,.386.2,1.906,1.906,0,0,0,.487.131,2.022,2.022,0,0,0,.9-.093,1.218,1.218,0,0,0,.135-.051,3.342,3.342,0,0,0,1.65-1.6,5.369,5.369,0,0,0,.544-1.641A5.533,5.533,0,0,0,2991.8,766.09Zm-4.659,3.33a4.031,4.031,0,0,1-.714-1.982c-.009-.091-.016-.181-.018-.271a5.023,5.023,0,0,1,1.229-3.575,2.489,2.489,0,0,1,1-.645,1.819,1.819,0,0,1,.791-.076,1.8,1.8,0,0,1,.777.292,2.692,2.692,0,0,1,.89,1.038,3.728,3.728,0,0,1,.243.594.011.011,0,0,1,0,.008,3.028,3.028,0,0,1,.1.376,4.733,4.733,0,0,1,.092.564c.013.137.022.277.024.415a5.209,5.209,0,0,1-.609,2.579,3.074,3.074,0,0,1-1.482,1.442c-.046.02-.1.036-.144.052a1.806,1.806,0,0,1-1.3-.07,1.932,1.932,0,0,1-.263-.14,2.42,2.42,0,0,1-.6-.577A.088.088,0,0,1,2987.142,769.42Z" transform="translate(-2986.16 -762.612)" fill="#364154"/>
              </g>
            </g>
            <g id="Group_61675" data-name="Group 61675" transform="translate(4.954 8.834)">
              <g id="Group_61674" data-name="Group 61674">
                <path id="Path_23649" data-name="Path 23649" d="M2981.077,776.835a.226.226,0,0,0,.151-.035h0a2.073,2.073,0,0,1,1.672-.08.238.238,0,0,0,.291-.146.225.225,0,0,0-.146-.287,2.478,2.478,0,0,0-2.063.123.231.231,0,0,0-.069.317A.223.223,0,0,0,2981.077,776.835Z" transform="translate(-2980.877 -776.127)" fill="#364154"/>
              </g>
            </g>
            <g id="Group_61676" data-name="Group 61676" transform="translate(5.537 13.288)">
              <path id="Path_23650" data-name="Path 23650" d="M2984.078,791.793a1.92,1.92,0,0,1-1.167-.364.181.181,0,0,1,.215-.29,2.289,2.289,0,0,0,2.168-.007.181.181,0,1,1,.168.319A3.282,3.282,0,0,1,2984.078,791.793Z" transform="translate(-2982.838 -791.103)" fill="#131f2d"/>
            </g>
          </g>
          <g id="Group_61678" data-name="Group 61678" transform="translate(53.781 30.243)">
            <path id="Path_23651" data-name="Path 23651" d="M3023.126,848.291s6.031,11.926,4.586,22.033-8.828,18.771-25.74,17.452l-1.906-7.3s7.55-.309,7.615-9.8,1.922-20.819,3.881-21.908S3023.126,848.291,3023.126,848.291Z" transform="translate(-3000.067 -848.12)" fill="#b8c1c9"/>
          </g>
          <g id="Group_61679" data-name="Group 61679" transform="translate(49.133 19.288)">
            <path id="Path_23652" data-name="Path 23652" d="M2984.437,816.948s3.408-1.392,4.439-3.042,2.578-3.1,4.537-2.478,1.186,1.425,2.63,1.1,2.681.6,1.186,2.688S2989.9,819.475,2984.437,816.948Z" transform="translate(-2984.437 -811.281)" fill="#fff"/>
          </g>
          <g id="Group_61680" data-name="Group 61680" transform="translate(46.613 19.085)">
            <path id="Path_23653" data-name="Path 23653" d="M2977.41,810.727a1.171,1.171,0,0,0,1.284.074c.812-.365,1.522.05,1.244.732s-1.3,1.5-1.234,2.385-.049,2.2,1.5,2.164-1.719.387-1.719.387-2.187-1.511-2.419-2.9S2975.894,810.051,2977.41,810.727Z" transform="translate(-2975.963 -810.597)" fill="#fff"/>
          </g>
          <g id="Group_61681" data-name="Group 61681" transform="translate(48.399 24.733)">
            <path id="Path_23654" data-name="Path 23654" d="M2982.7,836.724s.8-.928-.192-2.681-.576-4.693.868-4.435,3.867,3.562,2.939,5.494S2982.8,838.014,2982.7,836.724Z" transform="translate(-2981.971 -829.593)" fill="#fff"/>
          </g>
          <g id="Group_61682" data-name="Group 61682" transform="translate(45.447 24.227)">
            <path id="Path_23655" data-name="Path 23655" d="M2972.123,831.691s2.287-4.722,3.412-3.639-1.238,1.908-1.706,2.991S2971.652,832.586,2972.123,831.691Z" transform="translate(-2972.042 -827.89)" fill="#fff"/>
          </g>
          <g id="Group_61683" data-name="Group 61683" transform="translate(45.843 34.905)">
            <path id="Path_23656" data-name="Path 23656" d="M2973.412,864.547a.761.761,0,1,0,.952-.729A.861.861,0,0,0,2973.412,864.547Z" transform="translate(-2973.374 -863.799)" fill="#364154"/>
          </g>
          <g id="Group_61684" data-name="Group 61684" transform="translate(44.989 44.834)">
            <path id="Path_23657" data-name="Path 23657" d="M2970.542,897.934a.761.761,0,1,0,.952-.729A.861.861,0,0,0,2970.542,897.934Z" transform="translate(-2970.503 -897.187)" fill="#364154"/>
          </g>
          <g id="Group_61685" data-name="Group 61685" transform="translate(52.038 44.219)">
            <path id="Path_23658" data-name="Path 23658" d="M2994.231,915.93c-.3-1.978,2.121-3.914,4.923-6.155a37.475,37.475,0,0,0,5.5-5.038c2.111-2.549,2.389-6.629,2.251-9.6l.309-.014c.14,3.028-.149,7.189-2.322,9.814a37.71,37.71,0,0,1-5.543,5.082c-2.728,2.182-5.084,4.066-4.811,5.867Z" transform="translate(-2994.206 -895.12)" fill="#364154"/>
          </g>
          <g id="Group_61686" data-name="Group 61686" transform="translate(54.483 62.964)">
            <path id="Path_23659" data-name="Path 23659" d="M3004.488,966.772c-.677,0-1.362-.028-2.06-.086l.026-.308c12.661,1.056,22.128-8.129,22.223-8.221l.217.22C3024.8,958.466,3016.243,966.772,3004.488,966.772Z" transform="translate(-3002.428 -958.157)" fill="#364154"/>
          </g>
          <g id="Group_61687" data-name="Group 61687" transform="translate(27.929 36.657)">
            <path id="Path_23660" data-name="Path 23660" d="M2913.441,898.559l-.309-.018c.749-12.619,6.823-28.69,6.884-28.851l.289.11C2920.244,869.961,2914.187,885.988,2913.441,898.559Z" transform="translate(-2913.132 -869.69)" fill="#364154"/>
          </g>
        </g>
      </g>
      <g id="Group_61698" data-name="Group 61698" transform="translate(0 68.888)">
        <g id="Group_61691" data-name="Group 61691" transform="translate(11.528 78.407)">
          <g id="Group_61690" data-name="Group 61690">
            <path id="Path_23661" data-name="Path 23661" d="M2719.145,1255.285h0c-.483-.007-.83-.79-.709-1.511l1.994-12.028h2.7l-2.894,12.7A.933.933,0,0,1,2719.145,1255.285Z" transform="translate(-2718.412 -1241.746)" fill="#131f2d"/>
          </g>
        </g>
        <g id="Group_61693" data-name="Group 61693" transform="translate(111.949 80.106)">
          <g id="Group_61692" data-name="Group 61692">
            <path id="Path_23662" data-name="Path 23662" d="M3056.843,1261h0c-.483-.007-.83-.79-.709-1.511l1.994-12.028h2.7l-2.894,12.7A.933.933,0,0,1,3056.843,1261Z" transform="translate(-3056.11 -1247.461)" fill="#131f2d"/>
          </g>
        </g>
        <g id="Group_61695" data-name="Group 61695" transform="translate(140.785 75.953)">
          <g id="Group_61694" data-name="Group 61694">
            <path id="Path_23663" data-name="Path 23663" d="M3157.069,1247.032h0c.483-.007.83-.79.709-1.51l-1.994-12.028h-2.7l2.894,12.7A.933.933,0,0,0,3157.069,1247.032Z" transform="translate(-3153.081 -1233.494)" fill="#131f2d"/>
          </g>
        </g>
        <g id="Group_61696" data-name="Group 61696" transform="translate(25.401)">
          <path id="Path_23664" data-name="Path 23664" d="M2882.347,1058.679l-21.844,3.634-86.821-1.034a5.867,5.867,0,0,1-5.573-5.793l-3.039-71.058a5.9,5.9,0,0,1,5.664-6.35h115.535a5.9,5.9,0,0,1,5.666,6.269l-3.609,66.717C2888.225,1054.377,2885.441,1058.732,2882.347,1058.679Z" transform="translate(-2765.064 -978.078)" fill="#b7b7b7"/>
        </g>
        <g id="Group_61697" data-name="Group 61697">
          <path id="Path_23665" data-name="Path 23665" d="M2799.112,1062.429l-110.85-1.149a5.867,5.867,0,0,1-5.573-5.793l-3.039-71.058a5.9,5.9,0,0,1,5.664-6.35h115.535a5.9,5.9,0,0,1,5.667,6.269L2804.3,1057.3C2804.2,1060.608,2802.207,1062.482,2799.112,1062.429Z" transform="translate(-2679.645 -978.078)" fill="#eaeaea"/>
        </g>
      </g>
      <g id="Group_61702" data-name="Group 61702" transform="translate(98.652 41.185)">
        <g id="Group_61699" data-name="Group 61699" transform="translate(1.664)">
          <path id="Path_23666" data-name="Path 23666" d="M3050.3,903.931h-26.513a1.288,1.288,0,0,1-1.223-.876l-5.51-16.454a1.282,1.282,0,0,1,1.223-1.684h25.5a2.7,2.7,0,0,1,2.56,1.834l5.189,15.5A1.282,1.282,0,0,1,3050.3,903.931Z" transform="translate(-3016.99 -884.917)" fill="#131f2d"/>
        </g>
        <g id="Group_61700" data-name="Group 61700">
          <path id="Path_23667" data-name="Path 23667" d="M3044.706,903.931h-26.513a1.288,1.288,0,0,1-1.223-.876l-5.51-16.454a1.281,1.281,0,0,1,1.223-1.684h25.5a2.7,2.7,0,0,1,2.56,1.834l5.189,15.5A1.281,1.281,0,0,1,3044.706,903.931Z" transform="translate(-3011.393 -884.917)" fill="#364154"/>
        </g>
        <g id="Group_61701" data-name="Group 61701" transform="translate(11.352 11.858)">
          <path id="Path_23668" data-name="Path 23668" d="M3059,926.8l-.583,13.833h-8.844l1.165-13.833s.212-2.013,3.549-2.013S3059.052,925.49,3059,926.8Z" transform="translate(-3049.569 -924.792)" fill="#131f2d"/>
        </g>
      </g>
      <g id="Group_61706" data-name="Group 61706" transform="translate(17.282 43.536)">
        <g id="Group_61703" data-name="Group 61703" transform="translate(4.751 9.507)">
          <path id="Path_23669" data-name="Path 23669" d="M2763.164,926.8l-.583,13.833h-8.844L2754.9,926.8s.212-2.013,3.548-2.013S2763.22,925.49,2763.164,926.8Z" transform="translate(-2753.737 -924.792)" fill="#131f2d"/>
        </g>
        <g id="Group_61704" data-name="Group 61704" transform="translate(1.577)">
          <path id="Path_23670" data-name="Path 23670" d="M2743.448,911.836h13.343c.28,0,.627-.353.862-.876l7.4-16.454c.372-.829.3-1.684-.142-1.684h-12.831c-.585,0-1.312.739-1.8,1.834l-6.968,15.5C2742.933,910.981,2743,911.836,2743.448,911.836Z" transform="translate(-2743.065 -892.822)" fill="#131f2d"/>
        </g>
        <g id="Group_61705" data-name="Group 61705">
          <path id="Path_23671" data-name="Path 23671" d="M2738.144,911.836h13.343c.279,0,.626-.353.862-.876l7.4-16.454c.373-.829.3-1.684-.142-1.684h-12.832c-.585,0-1.312.739-1.8,1.834l-6.968,15.5C2737.629,910.981,2737.7,911.836,2738.144,911.836Z" transform="translate(-2737.761 -892.822)" fill="#364154"/>
        </g>
      </g>
    </g>
    <g id="Group_61805" data-name="Group 61805" transform="translate(1667.092 557.975)">
      <g id="Group_61755" data-name="Group 61755" transform="translate(84.133 39.567)">
        <g id="Group_61753" data-name="Group 61753">
          <g id="Group_61752" data-name="Group 61752">
            <g id="Group_61751" data-name="Group 61751">
              <path id="Path_23707" data-name="Path 23707" d="M2635.807,883.773l-.289-8.969c-3.924.953-15.843,0-17.8-17.026,0,0-.412-1.413-4.148-2.688-4.274-1.459-5.56-.625-5.56-.625C2604.769,876.717,2625.115,884.505,2635.807,883.773Z" transform="translate(-2607.662 -854.228)" fill="#ff7955"/>
            </g>
          </g>
        </g>
        <g id="Group_61754" data-name="Group 61754" transform="translate(26.155 17.476)">
          <path id="Path_23708" data-name="Path 23708" d="M2695.616,918.119s3.365-4.589,6.022-5.037,6.391.99,4.8,1.617a17.761,17.761,0,0,1-3.84.868s4.834-.289,4.411.871-3.818,1.3-3.818,1.3,4.969.181,4.215,1.147-5.143.848-5.143.848,5.373.321,4.471,1.423-4.438-.294-4.86.865a5.076,5.076,0,0,1-5.844,2.892Z" transform="translate(-2695.616 -912.997)" fill="#ff7955"/>
        </g>
      </g>
      <g id="Group_61756" data-name="Group 61756" transform="translate(50.732 0.498)">
        <path id="Path_23709" data-name="Path 23709" d="M2524.526,725.8a4.855,4.855,0,0,1,5.509,1.7c2.173,2.963,1.98,1.24,5.323,4.613s-2.1,5.116-.956,7.963,3.821,3,3.013,6.749-4.021,2.459-3.856,4.836,1.941,4.545-.964,5.09-3.762.4-5.409,3.851-6.832.425-10.742,1.869-14.073.9-14.721-1.238-8.572-3.305-4.717-9.309c2.127-3.311-1.163-2.535-1.643-6.857-.393-3.54,4.627-2.868,2.569-6.033a5.845,5.845,0,0,1,2.054-7.687c3.514-2.413,2.886-7.334,8.307-6.422s5.958-1.034,9.167-1.951S2522.471,726.115,2524.526,725.8Z" transform="translate(-2495.341 -722.847)" fill="#131f2d"/>
      </g>
      <g id="Group_61757" data-name="Group 61757" transform="translate(68.013 159.116)">
        <path id="Path_23710" data-name="Path 23710" d="M2560.17,1256.251s.082,3.239,2.29,4.152,8.606,1.738,6.216,3.82c-1.372,1.195-7.837.423-9.662.423s-3.539.79-4.9-.423c-1.492-1.334,0-7.972,0-7.972a7.332,7.332,0,0,0,2.992.778A5.84,5.84,0,0,0,2560.17,1256.251Z" transform="translate(-2553.455 -1256.251)" fill="#131f2d"/>
      </g>
      <g id="Group_61758" data-name="Group 61758" transform="translate(37.368 153.575)">
        <path id="Path_23711" data-name="Path 23711" d="M2459.2,1239.932s-1.183,3.02.5,4.707,7.267,4.9,4.252,5.9c-1.73.578-7.4-2.607-9.08-3.305s-3.572-.625-4.353-2.263c-.859-1.8,3.1-7.356,3.1-7.356a7.28,7.28,0,0,0,2.458,1.862A5.852,5.852,0,0,0,2459.2,1239.932Z" transform="translate(-2450.399 -1237.617)" fill="#131f2d"/>
      </g>
      <g id="Group_61759" data-name="Group 61759" transform="translate(62.677 70.334)">
        <path id="Path_23712" data-name="Path 23712" d="M2563.974,957.691s-.157,14.926-1.368,41.263c-.949,20.648-.753,39.783-2.576,48.853-.653,3.244-24.776,1.59-24.519-1.98l5.71-63.789,1.091-20.2Z" transform="translate(-2535.51 -957.691)" fill="#364154"/>
      </g>
      <g id="Group_61760" data-name="Group 61760" transform="translate(50.96 77.673)">
        <path id="Path_23713" data-name="Path 23713" d="M2496.109,986.509c.045,1.661,9.425,2.331,21.021,1.955s20.749-2.012,20.7-3.673-9.272-2.719-20.868-2.343S2496.063,984.848,2496.109,986.509Z" transform="translate(-2496.108 -982.372)" fill="#131f2d"/>
      </g>
      <g id="Group_61761" data-name="Group 61761" transform="translate(32.556 79.778)">
        <path id="Path_23714" data-name="Path 23714" d="M2479.6,991.055l-21.432,79.049c-1.029,3.279-24.569-5.926-23.933-9.408l19.84-67.291a2.43,2.43,0,0,1,1.7-1.814C2460.375,990.271,2480.048,987.815,2479.6,991.055Z" transform="translate(-2434.218 -989.451)" fill="#364154"/>
      </g>
      <g id="Group_61762" data-name="Group 61762" transform="translate(50.93 29.79)">
        <path id="Path_23715" data-name="Path 23715" d="M2504.1,828.818s4.112-8.788,15.67-7.3,18.889,17.426,18,50.132c0,0-18.6-5.9-41.755,1.681C2496.006,873.333,2497.754,841.594,2504.1,828.818Z" transform="translate(-2496.006 -821.351)" fill="#fff"/>
      </g>
      <g id="Group_61763" data-name="Group 61763" transform="translate(49.412 29.24)">
        <path id="Path_23716" data-name="Path 23716" d="M2490.9,822.886l9.239,9.309s20.921,4.057,26.622,3.568,6.959-4.5,6.959-4.5a26.12,26.12,0,0,0-14.628-10.5,27.986,27.986,0,0,0-2.914-.544c-1.71-.281-2.883-.219-4.578-.39C2495.837,818.24,2490.9,822.886,2490.9,822.886Z" transform="translate(-2490.902 -819.499)" fill="#fff"/>
      </g>
      <g id="Group_61764" data-name="Group 61764" transform="translate(65.289 90.305)">
        <path id="Path_23717" data-name="Path 23717" d="M2544.7,1061.289l-.4-.095,6.542-27.671a15.558,15.558,0,0,1,7.076-8.671l.2.358a15.139,15.139,0,0,0-6.882,8.425Z" transform="translate(-2544.294 -1024.852)" fill="#020202"/>
      </g>
      <g id="Group_61765" data-name="Group 61765" transform="translate(67.251 16.817)">
        <path id="Path_23718" data-name="Path 23718" d="M2550.912,790.288a3.211,3.211,0,0,0,2.4-2.182l1.064-3.465.309-1.006,1.816-5.913.231,5.895.138,3.538.039,1.009c.032.823.273,2.414.624,2.59,0,0,2.183.966.449,1.732-2.038.9-5.639-.373-7.084-2.193Z" transform="translate(-2550.893 -777.723)" fill="#ff7955"/>
      </g>
      <g id="Group_61766" data-name="Group 61766" transform="translate(70.696 22.543)">
        <path id="Path_23719" data-name="Path 23719" d="M2562.494,798.074c0,.032.01.064.017.1a3.75,3.75,0,0,0,2.482,2.526l.011-.012-.138-3.538a3.059,3.059,0,0,0-2.046.018A.826.826,0,0,0,2562.494,798.074Z" transform="translate(-2562.476 -796.978)" fill="#131f2d"/>
      </g>
      <g id="Group_61767" data-name="Group 61767" transform="translate(67.639 10.917)">
        <path id="Path_23720" data-name="Path 23720" d="M2563.322,764.077c-.419-3.744-3.238-6.5-6.295-6.168s-5.2,3.646-4.777,7.389,3.238,6.5,6.3,6.167S2563.741,767.82,2563.322,764.077Z" transform="translate(-2552.197 -757.881)" fill="#ff7955"/>
      </g>
      <g id="Group_61768" data-name="Group 61768" transform="translate(72.849 21.581)">
        <path id="Path_23721" data-name="Path 23721" d="M2573.569,793.944a12.185,12.185,0,0,1-3.851-.2,1.848,1.848,0,0,0,2.112,1.765C2573.029,795.451,2573.569,793.944,2573.569,793.944Z" transform="translate(-2569.718 -793.745)" fill="#fff"/>
      </g>
      <g id="Group_61770" data-name="Group 61770" transform="translate(72.143 17.419)">
        <g id="Group_61769" data-name="Group 61769">
          <path id="Path_23722" data-name="Path 23722" d="M2568.971,780.057a.128.128,0,0,0,.076-.084.126.126,0,0,0-.088-.155,1.378,1.378,0,0,0-1.59.54.126.126,0,0,0,.024.176.14.14,0,0,0,.178-.024,2.18,2.18,0,0,1,1.32-.45A.128.128,0,0,0,2568.971,780.057Z" transform="translate(-2567.344 -779.747)" fill="#080435"/>
        </g>
      </g>
      <g id="Group_61771" data-name="Group 61771" transform="translate(72.926 18.639)">
        <path id="Path_23723" data-name="Path 23723" d="M2569.978,784.423c.024.3.22.528.439.511s.377-.274.353-.573-.22-.528-.439-.51S2569.954,784.125,2569.978,784.423Z" transform="translate(-2569.975 -783.85)" fill="#080435"/>
      </g>
      <g id="Group_61773" data-name="Group 61773" transform="translate(76.678 17.322)">
        <g id="Group_61772" data-name="Group 61772">
          <path id="Path_23724" data-name="Path 23724" d="M2584.255,779.984a.127.127,0,0,0,.1-.048.125.125,0,0,0-.022-.176,1.38,1.38,0,0,0-1.677-.1.126.126,0,0,0-.045.172.14.14,0,0,0,.174.045,2.184,2.184,0,0,1,1.393.083A.127.127,0,0,0,2584.255,779.984Z" transform="translate(-2582.595 -779.42)" fill="#080435"/>
        </g>
      </g>
      <g id="Group_61774" data-name="Group 61774" transform="translate(76.954 18.528)">
        <path id="Path_23725" data-name="Path 23725" d="M2583.559,783.886a.485.485,0,0,0,.21.638c.208.067.453-.111.546-.4a.485.485,0,0,0-.21-.638C2583.9,783.423,2583.651,783.6,2583.559,783.886Z" transform="translate(-2583.523 -783.476)" fill="#080435"/>
      </g>
      <g id="Group_61775" data-name="Group 61775" transform="translate(49.135 32.23)">
        <path id="Path_23726" data-name="Path 23726" d="M2490.247,829.951c-.954,1.118.6,2.892,3.87,5.732s4.708,3.873,5.662,2.755.143-3.246-3.1-6.113C2494.3,830.221,2491.2,828.833,2490.247,829.951Z" transform="translate(-2489.969 -829.554)" fill="#131f2d"/>
      </g>
      <g id="Group_61776" data-name="Group 61776" transform="translate(55.603 79.283)">
        <path id="Path_23727" data-name="Path 23727" d="M2511.721,990.06s20.916-4.992,35.331-.181l-3.572,2.052-13.278.745Z" transform="translate(-2511.721 -987.787)" fill="#364154"/>
      </g>
      <g id="Group_61777" data-name="Group 61777" transform="translate(67.181 16.911)">
        <path id="Path_23728" data-name="Path 23728" d="M2551.385,780.474a1.376,1.376,0,0,0,1.974-.08,1.513,1.513,0,0,0-.538-1.981,1.376,1.376,0,0,0-1.974.08A1.513,1.513,0,0,0,2551.385,780.474Z" transform="translate(-2550.656 -778.041)" fill="#ff7955"/>
      </g>
      <g id="Group_61778" data-name="Group 61778" transform="translate(66.023 9.662)">
        <path id="Path_23729" data-name="Path 23729" d="M2556.121,756.671a2.091,2.091,0,0,1-2.167,1.994s.226,1.588-1.853,1.391c0,0,.269,1.061-1.164,1.314,0,0-.477,1.1-2.157.622s-2.848-3.628-1.282-5.461,5.885-3.59,8.618-2.564,4.705,6.393,4.046,6.769-2.218.193-2.429-1.017c0,0-1.437-.411-1.166-1.722A3.633,3.633,0,0,1,2556.121,756.671Z" transform="translate(-2546.761 -753.663)" fill="#131f2d"/>
      </g>
      <g id="Group_61779" data-name="Group 61779" transform="translate(66.027 18.538)">
        <path id="Path_23730" data-name="Path 23730" d="M2548.945,788.773l-.107,0a2.12,2.12,0,0,1-2.034-1.458,3.552,3.552,0,0,1,1.08-2.691.142.142,0,0,1,.2.2,3.33,3.33,0,0,0-1,2.443,1.859,1.859,0,0,0,1.767,1.221,1.952,1.952,0,0,0,1.993-1.68,2.378,2.378,0,0,0-.195-2,2.718,2.718,0,0,0-1.729-1.011.142.142,0,0,1,.036-.282,2.97,2.97,0,0,1,1.928,1.135,2.647,2.647,0,0,1,.233,2.233A2.205,2.205,0,0,1,2548.945,788.773Z" transform="translate(-2546.776 -783.511)" fill="#00a3fe"/>
      </g>
      <g id="Group_61780" data-name="Group 61780" transform="translate(76.095 20.427)">
        <path id="Path_23731" data-name="Path 23731" d="M2581.758,794.016a2.793,2.793,0,0,1-1.042-.2.142.142,0,0,1,.118-.258,2.272,2.272,0,0,0,2.7-.72,2.161,2.161,0,0,0,.043-2.744.142.142,0,0,1,.218-.182,2.577,2.577,0,0,1-2.041,4.1Z" transform="translate(-2580.634 -789.863)" fill="#00a3fe"/>
      </g>
      <g id="Group_61781" data-name="Group 61781" transform="translate(64.887)">
        <path id="Path_23732" data-name="Path 23732" d="M2544.307,723.194a6.532,6.532,0,0,1-1.251-.123.142.142,0,0,1,.055-.279,5.835,5.835,0,0,0,5.295-1.573.142.142,0,1,1,.213.188A6.1,6.1,0,0,1,2544.307,723.194Z" transform="translate(-2542.941 -721.171)" fill="#131f2d"/>
      </g>
      <g id="Group_61782" data-name="Group 61782" transform="translate(78.273 2.04)">
        <path id="Path_23733" data-name="Path 23733" d="M2599.63,733.942a.136.136,0,0,1-.051-.01,10.906,10.906,0,0,1-4.3-3.3c-1.945-2.518-4.064-2.142-4.885-1.863a2.573,2.573,0,0,1-2.391-.491.142.142,0,0,1,.188-.214,2.326,2.326,0,0,0,2.112.436c.879-.3,3.145-.7,5.2,1.959a10.831,10.831,0,0,0,4.175,3.205.142.142,0,0,1-.051.275Z" transform="translate(-2587.957 -728.032)" fill="#131f2d"/>
      </g>
      <g id="Group_61783" data-name="Group 61783" transform="translate(51.036 11.471)">
        <path id="Path_23734" data-name="Path 23734" d="M2497.06,767.872a.142.142,0,0,1-.082-.258c1.335-.941,1.042-1.534-.178-3.445-1.259-1.97.607-4.272.687-4.369a.142.142,0,0,1,.219.181c-.018.022-1.814,2.24-.667,4.036,1.223,1.914,1.657,2.735.1,3.83A.14.14,0,0,1,2497.06,767.872Z" transform="translate(-2496.365 -759.747)" fill="#131f2d"/>
      </g>
      <g id="Group_61784" data-name="Group 61784" transform="translate(50.873 26.583)">
        <path id="Path_23735" data-name="Path 23735" d="M2495.956,813.953a.142.142,0,0,1-.093-.249,1.976,1.976,0,0,0,.35-2.9.142.142,0,1,1,.213-.187,2.248,2.248,0,0,1-.377,3.3A.143.143,0,0,1,2495.956,813.953Z" transform="translate(-2495.814 -810.565)" fill="#131f2d"/>
      </g>
      <g id="Group_61785" data-name="Group 61785" transform="translate(58.403 5.817)">
        <path id="Path_23736" data-name="Path 23736" d="M2522.047,748.1a.141.141,0,0,1-.109-.051,3.689,3.689,0,0,1-.776-2.578,3.449,3.449,0,0,1,1.566-2.338,4,4,0,0,1,3.487-.781,4.947,4.947,0,0,0,3.793-.707,5,5,0,0,1,4.1-.741,3.1,3.1,0,0,1,1.394.867.142.142,0,0,1-.22.18c-.069-.084-1.74-2.037-5.132-.061a5.247,5.247,0,0,1-3.979.743,3.722,3.722,0,0,0-3.279.731,3.181,3.181,0,0,0-1.45,2.141,3.462,3.462,0,0,0,.713,2.364.142.142,0,0,1-.109.232Z" transform="translate(-2521.138 -740.734)" fill="#fff"/>
      </g>
      <g id="Group_61786" data-name="Group 61786" transform="translate(78.807 10.735)">
        <path id="Path_23737" data-name="Path 23737" d="M2597.423,768.757l-.025,0a.142.142,0,0,1-.115-.164c.2-1.171-.429-1.4-1.478-1.792a9.2,9.2,0,0,1-1.468-.648c-.384-.222-.569-.431-.582-.659-.02-.325.311-.574.693-.862.518-.389,1.1-.831,1.065-1.547-.051-.909-.542-.976-1.287-1.076a3.386,3.386,0,0,1-1.565-.5,1.762,1.762,0,0,1-.713-1.617c-.014-.532-.041-.77-.5-.828a2.2,2.2,0,0,1-1.685-1.617.142.142,0,0,1,.275-.071c0,.013.345,1.269,1.445,1.406.726.091.74.6.753,1.1a1.488,1.488,0,0,0,.591,1.39,3.165,3.165,0,0,0,1.442.45c.756.1,1.469.2,1.533,1.342.048.867-.632,1.379-1.178,1.789-.3.229-.591.445-.581.617.007.119.16.268.441.43a8.989,8.989,0,0,0,1.424.628c1.064.393,1.905.7,1.66,2.107A.142.142,0,0,1,2597.423,768.757Z" transform="translate(-2589.754 -757.271)" fill="#fff"/>
      </g>
      <g id="Group_61787" data-name="Group 61787" transform="translate(56.396 18.595)">
        <path id="Path_23738" data-name="Path 23738" d="M2517.529,792.607h0a.142.142,0,0,1-.138-.145c.025-1.086-.928-1.849-1.771-2.521-.674-.539-1.257-1-1.227-1.559.018-.348.28-.679.8-1.012a2.7,2.7,0,0,0,1.353-1.75,2.374,2.374,0,0,0-.43-1.686.142.142,0,0,1,.223-.175,2.619,2.619,0,0,1,.488,1.905,2.962,2.962,0,0,1-1.481,1.945c-.437.281-.657.538-.67.788-.021.409.508.833,1.121,1.323.849.678,1.905,1.523,1.876,2.75A.142.142,0,0,1,2517.529,792.607Z" transform="translate(-2514.389 -783.703)" fill="#fff"/>
      </g>
      <g id="Group_61789" data-name="Group 61789" transform="translate(30.935 33.912)">
        <g id="Group_61788" data-name="Group 61788">
          <path id="Path_23739" data-name="Path 23739" d="M2437.859,886.4c2.516-10.932,7.362-26.891,14.383-38.711a38.218,38.218,0,0,1,3.465-5.217c.947-1.172-.057-4.162-2.061-5.791-1.88-1.529-5.1-1.751-5.69-1.2-1,.941-2.194,2.843-4.057,5.866-6.473,10.5-11.4,25.378-15.131,43.814Z" transform="translate(-2428.768 -835.21)" fill="#ff7955"/>
        </g>
      </g>
      <g id="Group_61794" data-name="Group 61794" transform="translate(0 85.63)">
        <g id="Group_61790" data-name="Group 61790" transform="translate(26.649 0.2)">
          <path id="Path_23740" data-name="Path 23740" d="M2434.585,1031.159a.145.145,0,0,1-.141-.113c-.042-.2-4.385-19.7-12.9-20.891a4.836,4.836,0,0,0-4.271,1.247c-3.518,3.446-2.488,12.552-2.477,12.644a.144.144,0,0,1-.286.034,31.362,31.362,0,0,1-.1-5.082c.239-3.684,1.133-6.309,2.656-7.8a5.118,5.118,0,0,1,4.512-1.327c3.668.511,7,4.227,9.893,11.043a64.355,64.355,0,0,1,3.251,10.072.144.144,0,0,1-.11.171A.127.127,0,0,1,2434.585,1031.159Z" transform="translate(-2414.354 -1009.8)" fill="#131f2d"/>
        </g>
        <g id="Group_61791" data-name="Group 61791" transform="translate(0 8.842)">
          <path id="Path_23741" data-name="Path 23741" d="M2377.094,1052.093c-.925.344-37.035-13.232-37.035-13.232s-15.744,22.629-15.311,23.693,42.61,15.705,43.766,15.194S2377.094,1052.093,2377.094,1052.093Z" transform="translate(-2324.739 -1038.861)" fill="url(#linear-gradient)"/>
        </g>
        <g id="Group_61792" data-name="Group 61792" transform="translate(43.751 22.034)">
          <path id="Path_23742" data-name="Path 23742" d="M2480.469,1083.265c.56.457.086,2.924,1.314,2.566s2.817-3,2.961-1.928-3.9,26.368-4.983,27.085-2.239-1.72-3.972-1.362-3.395.02-3.9-.707S2479,1082.068,2480.469,1083.265Z" transform="translate(-2471.865 -1083.225)" fill="#131f2d"/>
        </g>
        <g id="Group_61793" data-name="Group 61793" transform="translate(24.52)">
          <path id="Path_23743" data-name="Path 23743" d="M2425.231,1031.1a.144.144,0,0,1-.144-.142c0-.2-.316-20.193-9.483-21.469a5.487,5.487,0,0,0-4.724,1.363c-4,3.736-3.36,13.563-3.353,13.662a.144.144,0,0,1-.134.153.139.139,0,0,1-.153-.133,33.792,33.792,0,0,1,.164-5.48c.311-2.73,1.133-6.406,3.28-8.412a5.759,5.759,0,0,1,4.96-1.437c3.906.544,6.827,4.488,8.447,11.4a54.258,54.258,0,0,1,1.283,10.346.143.143,0,0,1-.142.145Z" transform="translate(-2407.197 -1009.128)" fill="#131f2d"/>
        </g>
      </g>
      <g id="Group_61801" data-name="Group 61801" transform="translate(28.821 80.77)">
        <g id="Group_61795" data-name="Group 61795" transform="translate(1.698 5.084)">
          <path id="Path_23744" data-name="Path 23744" d="M2430.428,1010.037l-.448-.125a.783.783,0,0,0-.963.535l-1.526,3.646c-.116.41-.309,1.64.292,1.857,1.253.452,1.734-.794,1.85-1.2l1.334-3.753A.776.776,0,0,0,2430.428,1010.037Z" transform="translate(-2427.366 -1009.882)" fill="#ff7955"/>
        </g>
        <g id="Group_61796" data-name="Group 61796" transform="translate(3.926 5.783)">
          <path id="Path_23745" data-name="Path 23745" d="M2438.191,1012.389l-.448-.125a.784.784,0,0,0-.963.535l-1.88,3.6c-.23,2.018.653,2.084.653,2.084.821.3,1.7-1.407,1.819-1.817l1.358-3.32A.776.776,0,0,0,2438.191,1012.389Z" transform="translate(-2434.862 -1012.234)" fill="#ff7955"/>
        </g>
        <g id="Group_61797" data-name="Group 61797" transform="translate(7.986 1.164)">
          <path id="Path_23746" data-name="Path 23746" d="M2449.6,996.8l-.332.138a1.217,1.217,0,0,0-.656,1.591l2.537,6.007a1.232,1.232,0,0,0,1.6.651l.333-.138a1.216,1.216,0,0,0,.656-1.591l-2.537-6.006A1.232,1.232,0,0,0,2449.6,996.8Z" transform="translate(-2448.513 -996.702)" fill="#ff7955"/>
        </g>
        <g id="Group_61798" data-name="Group 61798" transform="translate(6.227 6.482)">
          <path id="Path_23747" data-name="Path 23747" d="M2446.122,1014.74l-.448-.126a.783.783,0,0,0-.963.535l-2.017,3.452c-.116.41-.2,1.539.194,1.724,1.163.543,2.181-1.314,2.3-1.724l1.474-2.906A.776.776,0,0,0,2446.122,1014.74Z" transform="translate(-2442.597 -1014.586)" fill="#ff7955"/>
        </g>
        <g id="Group_61799" data-name="Group 61799" transform="translate(0.382)">
          <path id="Path_23748" data-name="Path 23748" d="M2426.74,992.786s-4.178,3.978-3.769,8.04c.142,1.406,6.645,3.281,7.708,2.1s2.9-6.336,2.9-6.336Z" transform="translate(-2422.943 -992.786)" fill="#ff7955"/>
        </g>
        <g id="Group_61800" data-name="Group 61800" transform="translate(0 4.385)">
          <path id="Path_23749" data-name="Path 23749" d="M2423.939,1007.688l-.447-.125a.781.781,0,0,0-.961.533l-.851,3.624a1.439,1.439,0,0,0,.6,1.534c.711.244,1.357-.876,1.474-1.285l.721-3.328A.774.774,0,0,0,2423.939,1007.688Z" transform="translate(-2421.658 -1007.533)" fill="#ff7955"/>
        </g>
      </g>
      <g id="Group_61804" data-name="Group 61804" transform="translate(114.683 49.532)">
        <g id="Group_61802" data-name="Group 61802" transform="translate(0 0)">
          <path id="Rectangle_10873" data-name="Rectangle 10873" d="M7.228,0h0a7.228,7.228,0,0,1,7.228,7.228v7.206a7.228,7.228,0,0,1-7.228,7.228h0A7.228,7.228,0,0,1,0,14.434V7.228A7.228,7.228,0,0,1,7.228,0Z" transform="matrix(-0.926, -0.378, 0.378, -0.926, 13.384, 25.519)" fill="#fff"/>
        </g>
        <g id="Group_61803" data-name="Group 61803" transform="translate(6.692 2.732)">
          <rect id="Rectangle_10874" data-name="Rectangle 10874" width="3.048" height="21.662" transform="translate(2.822 21.207) rotate(-157.795)" fill="url(#linear-gradient)"/>
        </g>
      </g>
    </g>
    <g id="Group_61856" data-name="Group 61856" transform="translate(1611.906 562.898)">
      <g id="Group_61855" data-name="Group 61855" transform="translate(0 0)">
        <g id="Group_61807" data-name="Group 61807" transform="translate(39.04 32.811)">
          <g id="Group_61806" data-name="Group 61806">
            <path id="Path_23750" data-name="Path 23750" d="M2281.36,868.2c5.875,1.108,17.487,3.38,26.167-2.687a54.949,54.949,0,0,0,8.971-8.326l-6.418-9.119,3.209,4.559-3.2-4.566c-3.342,2.41-8.872,9.76-16.618,7.869-3.518-.86-7.61-1.391-11.848-7.635l-11.18,3.9C2273.959,859.2,2272.934,866.954,2281.36,868.2Z" transform="translate(-2270.444 -848.062)" fill="#364154"/>
          </g>
        </g>
        <g id="Group_61808" data-name="Group 61808" transform="translate(69.908 34.227)">
          <path id="Path_23751" data-name="Path 23751" d="M2374.246,861.741s3.65-5.395,7.36-7.056,6.062-.283,6.062-.283l3.981-1.577s.571,14.987-9.776,12.346C2381.056,864.962,2374.246,861.741,2374.246,861.741Z" transform="translate(-2374.246 -852.824)" fill="#ff7955"/>
        </g>
        <g id="Group_61809" data-name="Group 61809" transform="translate(67.6 21.681)">
          <path id="Path_23752" data-name="Path 23752" d="M2385.6,815.367l-3.8,21.724a2.581,2.581,0,0,1-3.056,2.073l-10.188-2.048a2.563,2.563,0,0,1-2.031-2.95l3.747-21.408a2.58,2.58,0,0,1,2.978-2.087l10.244,1.733A2.564,2.564,0,0,1,2385.6,815.367Z" transform="translate(-2366.487 -810.633)" fill="#131f2d"/>
        </g>
        <g id="Group_61810" data-name="Group 61810" transform="translate(83.763 25.082)">
          <path id="Path_23753" data-name="Path 23753" d="M2422.2,822.728a.681.681,0,1,0-.662.694A.679.679,0,0,0,2422.2,822.728Z" transform="translate(-2420.838 -822.071)" fill="#fff"/>
        </g>
        <g id="Group_61812" data-name="Group 61812" transform="translate(79.24 31.197)">
          <g id="Group_61811" data-name="Group 61811">
            <path id="Path_23754" data-name="Path 23754" d="M2414.2,846.39s1.05-2.286-1.059-3.222c-2.687-1.193-7.188-.123-5.5.657a21.688,21.688,0,0,0,3.869,1.165s-6.038-1.124-5.844.2,5.4,2.22,5.4,2.22-5.982-.544-5.391.648,5.312,2.035,5.312,2.035-5.817-.844-5.1.525,3.816,1.2,5.145,1.426c1.255.214,1.8-.521,1.922-1.737a3.506,3.506,0,0,0,.706-1.956c-.047-.312.287-.558.351-.771A7.874,7.874,0,0,0,2414.2,846.39Z" transform="translate(-2405.631 -842.634)" fill="#ff7955"/>
          </g>
        </g>
        <g id="Group_61813" data-name="Group 61813" transform="translate(10.456 72.761)">
          <path id="Path_23755" data-name="Path 23755" d="M2174.322,986.348c.041,1.572,9.616,2.2,21.459,1.829s21.307-1.992,21.267-3.564-9.57-2.494-21.413-2.127S2174.281,984.776,2174.322,986.348Z" transform="translate(-2174.322 -982.406)" fill="#131f2d"/>
        </g>
        <g id="Group_61814" data-name="Group 61814" transform="translate(10.072 23.892)">
          <path id="Path_23756" data-name="Path 23756" d="M2176.314,826.388s2.094-8.237,17.545-8.321c22.282-.12,20.219,20.2,22.281,51.076,0,0-13.51-5.6-42.726,1.735C2173.415,870.878,2171.475,838.973,2176.314,826.388Z" transform="translate(-2173.031 -818.066)" fill="#364154"/>
        </g>
        <g id="Group_61815" data-name="Group 61815" transform="translate(10.073 23.823)">
          <path id="Path_23757" data-name="Path 23757" d="M2173.031,824.754l7.671,5.833s22.578,4.943,28.444,3.984,6.994-3.338,6.994-3.338-6.248-11.263-16.867-12.975c-1-.162-2.032-.281-3.1-.351a30.767,30.767,0,0,0-5.368.106C2177.342,819.518,2173.031,824.754,2173.031,824.754Z" transform="translate(-2173.031 -817.837)" fill="#364154"/>
        </g>
        <g id="Group_61816" data-name="Group 61816" transform="translate(25.885 10.789)">
          <path id="Path_23758" data-name="Path 23758" d="M2229.1,785.223l1.167-3.736.339-1.087,2-6.395.262,6.361.157,3.818.05,1.208c.034.82.538.993,1.151,1.706.248.289,1.838,2.04.034,2.831-2.248.986-6.45-.507-8.048-2.462C2226.22,787.465,2228.722,786.43,2229.1,785.223Z" transform="translate(-2226.207 -774.005)" fill="#ff7955"/>
        </g>
        <g id="Group_61817" data-name="Group 61817" transform="translate(35.02 8.388)">
          <path id="Path_23759" data-name="Path 23759" d="M2259.32,765.93a8.337,8.337,0,0,1,0,3.489c-.406,1.941-2.4-2.83-2.4-2.83Z" transform="translate(-2256.924 -765.93)" fill="#131f2d"/>
        </g>
        <g id="Group_61818" data-name="Group 61818" transform="translate(25.372 5.609)">
          <ellipse id="Ellipse_118" data-name="Ellipse 118" cx="5.726" cy="6.853" rx="5.726" ry="6.853" transform="translate(0 1.554) rotate(-7.797)" fill="#ff7955"/>
        </g>
        <g id="Group_61820" data-name="Group 61820" transform="translate(30.874 12.665)">
          <g id="Group_61819" data-name="Group 61819">
            <path id="Path_23760" data-name="Path 23760" d="M2244.385,780.537a.115.115,0,0,0-.052-.212,1.261,1.261,0,0,0-1.338.756.116.116,0,0,0,.052.155.128.128,0,0,0,.156-.052,1.993,1.993,0,0,1,1.111-.629A.115.115,0,0,0,2244.385,780.537Z" transform="translate(-2242.983 -780.313)" fill="#080435"/>
          </g>
        </g>
        <g id="Group_61821" data-name="Group 61821" transform="translate(31.748 13.782)">
          <path id="Path_23761" data-name="Path 23761" d="M2245.947,784.654c.073.265.289.437.483.385a.445.445,0,0,0,.219-.575c-.073-.265-.289-.437-.483-.385A.445.445,0,0,0,2245.947,784.654Z" transform="translate(-2245.923 -784.07)" fill="#080435"/>
        </g>
        <g id="Group_61823" data-name="Group 61823" transform="translate(35.377 12.136)">
          <g id="Group_61822" data-name="Group 61822">
            <path id="Path_23762" data-name="Path 23762" d="M2259.319,778.945a.084.084,0,0,0,.063-.057.138.138,0,0,0-.045-.156.819.819,0,0,0-1.184.134.136.136,0,0,0,0,.161.086.086,0,0,0,.128.017,1.226,1.226,0,0,1,.983-.112A.077.077,0,0,0,2259.319,778.945Z" transform="translate(-2258.125 -778.534)" fill="#080435"/>
          </g>
        </g>
        <g id="Group_61824" data-name="Group 61824" transform="translate(35.506 13.276)">
          <path id="Path_23763" data-name="Path 23763" d="M2258.566,782.82c-.035.273.1.514.3.539s.389-.176.423-.449-.1-.514-.3-.539S2258.6,782.547,2258.566,782.82Z" transform="translate(-2258.561 -782.369)" fill="#080435"/>
        </g>
        <g id="Group_61825" data-name="Group 61825" transform="translate(22.482 11.338)">
          <path id="Path_23764" data-name="Path 23764" d="M2214.763,776.648s1.914,4.1,4.628,4.4c0,0-2.195-3.124,2.431-5.028C2221.823,776.021,2217.575,775.357,2214.763,776.648Z" transform="translate(-2214.763 -775.85)" fill="#131f2d"/>
        </g>
        <g id="Group_61826" data-name="Group 61826" transform="translate(25.697 12.321)">
          <path id="Path_23765" data-name="Path 23765" d="M2226.187,781.235a1.192,1.192,0,0,0,1.649-.269,1.172,1.172,0,0,0-.453-1.6,1.191,1.191,0,0,0-1.649.268A1.171,1.171,0,0,0,2226.187,781.235Z" transform="translate(-2225.575 -779.158)" fill="#ff7955"/>
        </g>
        <g id="Group_61827" data-name="Group 61827" transform="translate(27.505 11.508)">
          <path id="Path_23766" data-name="Path 23766" d="M2233.69,776.423s-.37,3.44.335,4.09,5.364.93,7.538.1h0a4.5,4.5,0,0,1-3.729,4.526,6.628,6.628,0,0,1-2.224-.008h0a4.533,4.533,0,0,1-3.629-2.29,13.009,13.009,0,0,1,.365-3.049,2.95,2.95,0,0,0-.693-2.34A4.429,4.429,0,0,1,2233.69,776.423Z" transform="translate(-2231.652 -776.423)" fill="#131f2d"/>
        </g>
        <g id="Group_61828" data-name="Group 61828" transform="translate(22.15 3.991)">
          <path id="Path_23767" data-name="Path 23767" d="M2221.037,758.661s-.382-2.406,1.518-2.577,4.067-.489,4.813,0A7.956,7.956,0,0,1,2229,758.49s1.042-3.607-.868-5.149-8-3.573-11.886-.887a5.852,5.852,0,0,0-2.272,6.834A22.793,22.793,0,0,1,2221.037,758.661Z" transform="translate(-2213.645 -751.143)" fill="#131f2d"/>
        </g>
        <g id="Group_61829" data-name="Group 61829" transform="translate(24.594)">
          <path id="Path_23768" data-name="Path 23768" d="M2224.178,743.025s-2.865-2.348-2.217-4.084,3.68-1.187,4.852-.915,1.371,2.349.429,3.688A4.069,4.069,0,0,1,2224.178,743.025Z" transform="translate(-2221.866 -737.723)" fill="#131f2d"/>
        </g>
        <g id="Group_61830" data-name="Group 61830" transform="translate(27.661 152.38)">
          <path id="Path_23769" data-name="Path 23769" d="M2235.836,1250.194a3.585,3.585,0,0,1,3.325,1.823,3,3,0,0,0,1.452,1.347c2.068.855,8.061,1.628,5.821,3.578-1.285,1.119-7.34.4-9.049.4s-3.315.739-4.585-.4c-.761-.68-.693-2.833-.473-4.653a2.412,2.412,0,0,1,2.674-2.118,4.022,4.022,0,0,0,.6.033C2235.681,1250.2,2235.76,1250.2,2235.836,1250.194Z" transform="translate(-2232.178 -1250.151)" fill="#131f2d"/>
        </g>
        <g id="Group_61831" data-name="Group 61831" transform="translate(3.909 151.703)">
          <path id="Path_23770" data-name="Path 23770" d="M2158.6,1247.874s.076,3.033,2.145,3.889,8.061,1.628,5.821,3.578c-1.285,1.119-7.34.4-9.049.4s-3.315.739-4.585-.4c-1.4-1.249,0-7.467,0-7.467a6.869,6.869,0,0,0,2.8.729A5.472,5.472,0,0,0,2158.6,1247.874Z" transform="translate(-2152.306 -1247.874)" fill="#131f2d"/>
        </g>
        <g id="Group_61832" data-name="Group 61832" transform="translate(18.66 74.79)">
          <path id="Path_23771" data-name="Path 23771" d="M2230.02,989.842a2.008,2.008,0,0,1,1.788,1.75c.225,1.846.262,5.747-.853,13.84-1.638,11.89-7.831,55.278-8.86,61.061-.368,2.069-.789,3.342-3.811,3.778l-4.013-.078c-3.267.472-4.525-3.009-4.548-5.235l2.627-66.837-10.442-7.906a148.086,148.086,0,0,1,16.651-.984A113.8,113.8,0,0,1,2230.02,989.842Z" transform="translate(-2201.908 -989.23)" fill="#b8c1c9"/>
        </g>
        <g id="Group_61833" data-name="Group 61833" transform="translate(0.367 75.416)">
          <path id="Path_23772" data-name="Path 23772" d="M2176.971,993.538l-23.016,73.372a7.41,7.41,0,0,1-6.923,5.229l-1.384.024a5.223,5.223,0,0,1-5.168-6.2l12.59-68.943c.183-.82.651-4.441,1.448-4.67C2158.835,991.113,2177.4,990.5,2176.971,993.538Z" transform="translate(-2140.392 -991.335)" fill="#b8c1c9"/>
        </g>
        <g id="Group_61834" data-name="Group 61834" transform="translate(26.292 87.257)">
          <path id="Path_23773" data-name="Path 23773" d="M2227.94,1054.311l-.366-.121,4.95-14.933a14.567,14.567,0,0,1,6.622-8.1l.191.335a14.181,14.181,0,0,0-6.446,7.89Z" transform="translate(-2227.574 -1031.152)" fill="#020202"/>
        </g>
        <g id="Group_61835" data-name="Group 61835" transform="translate(20.03 19.901)">
          <path id="Path_23774" data-name="Path 23774" d="M2207.453,810.505s-2.4-2.2.486-2.978c1.142-.307,2.844-3.105,4.432-2.864s2.525,9.115,8.9,11.86c0,0,1.569,1.357-.985,1.3S2207.453,810.505,2207.453,810.505Z" transform="translate(-2206.516 -804.648)" fill="#00a3fe"/>
        </g>
        <g id="Group_61836" data-name="Group 61836" transform="translate(34.76 21.321)">
          <path id="Path_23775" data-name="Path 23775" d="M2256.073,819.877s3.189-3.113,2.633-6.018,1.065-5.39,1.855-4.077,1.7.5,1.885,2.142-2.282,9.732-4.516,9.732S2256.073,819.877,2256.073,819.877Z" transform="translate(-2256.05 -809.422)" fill="#00a3fe"/>
        </g>
        <g id="Group_61837" data-name="Group 61837" transform="translate(32.461 32.389)">
          <path id="Path_23776" data-name="Path 23776" d="M2249.92,846.642a2.451,2.451,0,0,0-1.3,3.1c.764,2.178-.3,3.058-.3,3.058a2.644,2.644,0,0,0,2.8-2.213A5.205,5.205,0,0,0,2249.92,846.642Z" transform="translate(-2248.318 -846.642)" fill="#00a3fe"/>
        </g>
        <g id="Group_61838" data-name="Group 61838" transform="translate(34.427 32.389)">
          <path id="Path_23777" data-name="Path 23777" d="M2255.737,846.642s2.618.885,2.73,2.575-1.388,2.092-1.915,1.086-1.622-2.976-1.622-2.976Z" transform="translate(-2254.931 -846.642)" fill="#00a3fe"/>
        </g>
        <g id="Group_61839" data-name="Group 61839" transform="translate(27.833 15.695)">
          <path id="Path_23778" data-name="Path 23778" d="M2232.758,792.731a5.185,5.185,0,0,0,1.709,3.694c1.69,1.329.572,2.486,2.06,4.372s-.283,1.928,2.351,3.3,4.621.128,4.1-1.972,1.771-1.543.691-4.2-1.866-1.029-.954-3.857-.377-3.565-.377-3.565-1.456.1-2.632.308-2.232-.158-3.054.1S2232.758,792.731,2232.758,792.731Z" transform="translate(-2232.758 -790.502)" fill="#131f2d"/>
        </g>
        <g id="Group_61840" data-name="Group 61840" transform="translate(32.533 16.936)">
          <path id="Path_23779" data-name="Path 23779" d="M2252.3,794.675a11.833,11.833,0,0,1-3.735.292,1.8,1.8,0,0,0,2.26,1.435C2251.968,796.194,2252.3,794.675,2252.3,794.675Z" transform="translate(-2248.561 -794.675)" fill="#fff"/>
        </g>
        <g id="Group_61841" data-name="Group 61841" transform="translate(29.849 59.243)">
          <path id="Path_23780" data-name="Path 23780" d="M2245.749,936.946s4.126,13.956,3.968,19.712c0,0-5.362,4.1-9.225,2.444S2245.749,936.946,2245.749,936.946Z" transform="translate(-2239.537 -936.946)" fill="#fff"/>
        </g>
        <g id="Group_61842" data-name="Group 61842" transform="translate(35.301 44.359)">
          <path id="Path_23781" data-name="Path 23781" d="M2257.869,887.65a.76.76,0,1,1,.76.754A.757.757,0,0,1,2257.869,887.65Z" transform="translate(-2257.869 -886.896)" fill="#131f2d"/>
        </g>
        <g id="Group_61843" data-name="Group 61843" transform="translate(35.301 53.545)">
          <path id="Path_23782" data-name="Path 23782" d="M2257.869,918.541a.76.76,0,1,1,.76.754A.757.757,0,0,1,2257.869,918.541Z" transform="translate(-2257.869 -917.787)" fill="#131f2d"/>
        </g>
        <g id="Group_61848" data-name="Group 61848" transform="translate(5.937 32.573)">
          <g id="Group_61845" data-name="Group 61845" transform="translate(23.925 22.6)">
            <g id="Group_61844" data-name="Group 61844">
              <path id="Path_23783" data-name="Path 23783" d="M2241.962,926.645s3.242-3.455,6.016-3.383,6.259,2.262,4.531,2.582a18.287,18.287,0,0,1-4.05.119s4.939.663,4.284,1.751-4.945.47-4.945.47,5.814,1.257,4.863,2.085-5.362-.159-5.362-.159,5.363,1.386,4.235,2.321-4.424-1.174-5.08-.086-3.626,5.188-6.873,3.736Z" transform="translate(-2239.581 -923.261)" fill="#ff7955"/>
            </g>
          </g>
          <g id="Group_61847" data-name="Group 61847">
            <g id="Group_61846" data-name="Group 61846">
              <path id="Path_23784" data-name="Path 23784" d="M2188.146,878.265l-2.418-2.1c.084-1.037,1.225-3.259-.3-2.919-5.019,1.123-11.734-2.769-13.5-5.826-2.451-4.243-1.764-10.376-.73-14.573.529-2.147.048-3.876-2.533-5.343-1.072-.609-1.4.136-4.179,0-1.341-.068-2.171.311-2.522,1.384-.55,1.679-1.908,1.809-2.384,4.937-1.13,7.429-.159,14.09,2.809,19.263,3.643,6.349,12.928,10.545,22.643,9.855C2186.123,882.859,2188.055,879.384,2188.146,878.265Z" transform="translate(-2159.125 -847.26)" fill="#ff7955"/>
            </g>
          </g>
        </g>
        <g id="Group_61849" data-name="Group 61849" transform="translate(2.796 30.211)">
          <path id="Path_23785" data-name="Path 23785" d="M2156.3,839.374s-11.924,11.552-6.176,24.033a25.524,25.524,0,0,0,22.112,14.9s3.34-6.833,3.387-10.934c0,0-9.514-1.567-9.833-7.565s1.137-17.065-2.009-19S2156.3,839.374,2156.3,839.374Z" transform="translate(-2148.563 -839.319)" fill="#364154"/>
        </g>
        <g id="Group_61850" data-name="Group 61850" transform="translate(16.838 40.485)">
          <path id="Path_23786" data-name="Path 23786" d="M2197.69,886.273a.158.158,0,0,1-.128-.066c-3.925-5.453-.132-12.192-.093-12.259a.158.158,0,1,1,.273.157,14.568,14.568,0,0,0-1.408,3.968,10.051,10.051,0,0,0,1.484,7.95.158.158,0,0,1-.036.22A.155.155,0,0,1,2197.69,886.273Z" transform="translate(-2195.784 -873.869)" fill="#131f2d"/>
        </g>
        <g id="Group_61851" data-name="Group 61851" transform="translate(4.54 50.447)">
          <path id="Path_23787" data-name="Path 23787" d="M2181.263,944.056s-6.907,1.3-11.638-.65c.773-1.7.931-4.3-1.42-4.591-2.6-.325-4.352,4.118-4.352,4.118-3.684-.037-9.38-.657-9.38-.657-.719-6.579,6.708-29.7,8.361-33.276s7.813-.515,10.124,1.889,11.332,2.217,11.332,2.217C2186.477,915.153,2181.263,944.056,2181.263,944.056Z" transform="translate(-2154.425 -907.368)" fill="#fff"/>
        </g>
        <g id="Group_61852" data-name="Group 61852" transform="translate(48.529 38.388)">
          <path id="Path_23788" data-name="Path 23788" d="M2305.759,882.13a.158.158,0,0,1-.157-.148c-.366-5.812-3.213-14.871-3.242-14.962a.158.158,0,0,1,.3-.1c.029.091,2.887,9.187,3.257,15.037a.158.158,0,0,1-.148.167Z" transform="translate(-2302.352 -866.815)" fill="#131f2d"/>
        </g>
        <g id="Group_61853" data-name="Group 61853" transform="translate(22.258 78.532)">
          <path id="Path_23789" data-name="Path 23789" d="M2223.666,1001.813a39.306,39.306,0,0,1,5.563,6.021s-5.262,4.783-7.611,7.359c0,0-4.464-4.323-7.2-4.629S2223.666,1001.813,2223.666,1001.813Z" transform="translate(-2214.007 -1001.813)" fill="#fff"/>
        </g>
        <g id="Group_61854" data-name="Group 61854" transform="translate(0 77.038)">
          <path id="Path_23790" data-name="Path 23790" d="M2144.722,996.788s-3.776,1.874-5.563,4.579c0,0,5.24,5.122,5.563,7.961,0,0,4.1-3.236,6.844-3.542S2144.722,996.788,2144.722,996.788Z" transform="translate(-2139.159 -996.788)" fill="#fff"/>
        </g>
      </g>
    </g>
    <g id="Group_61857" data-name="Group 61857" transform="translate(1687.163 488.908)">
      <rect id="Rectangle_10875" data-name="Rectangle 10875" width="132.633" height="27.888" rx="13.944" transform="translate(0.495 1.008)" fill="#eaeaea"/>
    </g>
    <g id="Group_61858" data-name="Group 61858" transform="translate(1859.992 614.936)">
      <path id="Path_23791" data-name="Path 23791" d="M2701.127,915.9s2.719-3.182,4.891-3.182,5.4.044,5.269.791-3.733,2.279-4.414,3.191-3.53,2.777-4.888,2.135S2701.127,915.9,2701.127,915.9Z" transform="translate(-2701.038 -912.72)" fill="#ff7955"/>
    </g>
  </g>
</svg>
